<svg class="svg-icon" style="width: 1em;height: 1em;vertical-align: middle;fill: currentColor;overflow: hidden;" viewBox="0 0 1024 1024" version="1.1" xmlns="http://www.w3.org/2000/svg"><path d="M817.728 158.104c-44.802-67.796-132.216-84.546-197.626-47.176-58.948-62.938-158.29-62.186-216.668-0.044-94.32-54.04-217.42 10.11-221.342 121.612C89.692 210.814 0 280.002 0 374.858v113.906c0 65.482 28.56 127.908 78.36 171.268l195.42 170.162c8.504 7.404 6.22 11.146 6.22 65.806 0 35.346 28.654 64 64 64h504c35.346 0 64-28.654 64-64 0-47.026-2.03-61.49 7.964-84.74l85.67-199.312c12.188-28.354 18.366-58.344 18.366-89.136V293.926c0-105.678-108.628-177.324-206.272-135.822zM928 522.812a129.01 129.01 0 0 1-10.564 51.226l-85.67 199.31c-10.46 24.342-15.766 50.08-15.766 76.5V864H376v-20.572c0-32.74-14.28-63.954-39.18-85.634l-195.42-170.16C112.548 562.51 96 526.472 96 488.762v-113.906c0-66.416 104-67.074 104 1.354v82.456a32 32 0 0 0 10.986 24.134l14 12.19A32 32 0 0 0 278 470.858V237.714c0-66.194 104-67.45 104 1.354v53.502c0 17.672 14.328 32 32 32h14c17.672 0 32-14.328 32-32v-82.286c0-66.268 104-67.35 104 1.354v80.932c0 17.672 14.326 32 32 32h14c17.674 0 32-14.328 32-32v-54.858c0-66.06 104-67.56 104 1.354v53.502c0 17.672 14.326 32 32 32h14c17.674 0 32-14.328 32-32 0-66.292 104-67.226 104 1.354v228.89z"  /></svg>