<svg class="svg-icon" style="width: 1em; height: 1em;vertical-align: middle;fill: currentColor;overflow: hidden;" viewBox="0 0 1024 1024" version="1.1" xmlns="http://www.w3.org/2000/svg"><path d="M512 960l140-0.026c10.228 0 20.462-1.166 30.406-3.458l237.998-54.854C981.12 887.67 1024 834.04 1024 772.554V361.15c0-47.69-26.06-91.902-68.01-115.38l-195.998-109.706c-68.818-38.522-134.526-11.648-184.436 49.466L285.7 74.016c-75.774-29.158-161.224 7.454-191.284 82.402-30.196 75.284 7.27 160.74 83.884 190.224L336 384l-188-18.282c-81.608 0-148 65.622-148 146.28 0 80.66 66.392 146.282 148 146.282h175.27c-7.35 52.49 17.384 102.594 60.682 130.012C357.314 873.474 422.088 960 512 960z m0-96.026c-50.32 0-50.24-73.134 0-73.134 17.674 0 32-14.326 32-32v-13.712c0-17.674-14.326-32-32-32h-56c-50.318 0-50.244-73.134 0-73.134h56c17.674 0 32-14.326 32-32v-13.712c0-17.674-14.326-32-32-32H148c-68.86 0-68.75-100.562 0-100.562h364c17.674 0 32-14.326 32-32v-23.264a32 32 0 0 0-20.508-29.866L212.778 257.02c-63.104-24.28-26.864-118.566 38.444-93.434l333.098 128.182a32.002 32.002 0 0 0 36.278-9.624l43.528-53.294c11.64-14.254 32.696-18.128 48.976-9.016l196 109.708c11.656 6.526 18.898 18.636 18.898 31.61v411.402c0 16.982-11.988 31.608-29.152 35.564l-238.002 54.854a39.486 39.486 0 0 1-8.846 1.004h-140z" fill="" /></svg>